<?xml version="1.0" standalone="no"?>
<!DOCTYPE svg PUBLIC "-//W3C//DTD SVG 20010904//EN"
 "http://www.w3.org/TR/2001/REC-SVG-20010904/DTD/svg10.dtd">
<svg version="1.0" xmlns="http://www.w3.org/2000/svg"
 width="225.000000pt" height="225.000000pt" viewBox="0 0 225.000000 225.000000"
 preserveAspectRatio="xMidYMid meet">

<g transform="translate(0.000000,225.000000) scale(0.100000,-0.100000)"
fill="#000000" stroke="none">
<path d="M518 2022 l-228 -228 2 -830 3 -831 28 -40 c15 -22 46 -50 70 -64
l42 -24 673 -3 c455 -2 686 1 713 8 50 14 107 64 130 115 18 38 19 93 19 1000
0 907 -1 962 -19 1000 -23 51 -79 101 -128 114 -24 7 -226 11 -558 11 l-520 0
-227 -228z m1297 73 l25 -24 0 -946 0 -946 -25 -24 -24 -25 -659 0 c-652 0
-660 0 -686 21 l-26 20 0 724 0 723 168 4 c145 4 172 7 207 25 99 52 115 95
115 308 l0 165 440 0 441 0 24 -25z m-1035 -147 c-1 -112 -4 -147 -16 -163
-13 -18 -30 -21 -164 -25 -83 -3 -150 -3 -150 0 0 5 323 330 327 330 2 0 3
-64 3 -142z"/>
<path d="M1437 1452 c-27 -30 -20 -65 22 -118 106 -134 148 -316 111 -479 -15
-67 -63 -161 -111 -219 -60 -74 -48 -136 26 -136 28 0 40 8 74 51 87 110 136
225 151 358 10 85 -2 206 -26 279 -33 99 -110 227 -163 270 -22 18 -65 15 -84
-6z"/>
<path d="M964 1295 l-139 -104 -75 -1 c-89 0 -134 -20 -162 -71 -16 -29 -18
-52 -16 -166 3 -124 4 -133 28 -159 37 -39 80 -54 160 -54 l70 0 136 -85 c141
-89 177 -100 207 -67 15 17 17 59 17 399 0 355 -1 381 -18 396 -36 33 -64 21
-208 -88z m96 -320 l0 -225 -97 60 -97 60 -83 0 -83 0 0 95 0 95 83 0 84 0 93
70 c51 39 95 70 97 70 2 0 3 -101 3 -225z"/>
<path d="M1297 1232 c-24 -27 -21 -63 11 -118 23 -42 27 -60 27 -129 0 -69 -4
-87 -27 -129 -32 -56 -36 -96 -10 -119 51 -46 114 6 152 124 30 94 25 199 -14
284 -15 33 -37 70 -48 82 -26 28 -69 30 -91 5z"/>
</g>
</svg>
